# xmcd
#
# Track frame offsets: 
#        150
#        24102
#        58467
#        109123
#        133279
#        182863
#        217597
#
# Disc length: 3465 seconds
#
# Revision: 0
# Processed by: cddbd v1.5.2PL0 Copyright (c) Steve Scherf et al.
# Submitted via: ExactAudioCopy v1.0b3
#
DISCID=600d8707
DTITLE=Gov't Mule - Beacon Theatre 2012-12-31-D1
DYEAR=2012
DGENRE=Blues
TTITLE0=Bad Little Doggie
TTITLE1=Left Coast Groovies
TTITLE2=About To Rage
TTITLE3=Streamline Woman
TTITLE4=Endless Parade
TTITLE5=Monkey Hill
TTITLE6=Brighter Days
EXTD=
EXTT0=
EXTT1=
EXTT2=
EXTT3=
EXTT4=
EXTT5=
EXTT6=
PLAYORDER=
